<svg width="154" height="30" viewBox="0 0 154 30" fill="none" xmlns="http://www.w3.org/2000/svg">
<path d="M51.3281 20.6914L55.2656 24.2656L53.4375 25.9766L49.5703 22.4375L51.3281 20.6914ZM55.125 13.0742V15.8633C55.125 17.082 54.9844 18.1523 54.7031 19.0742C54.4297 19.9961 54.0312 20.7656 53.5078 21.3828C52.9844 22 52.3555 22.4648 51.6211 22.7773C50.8945 23.082 50.0781 23.2344 49.1719 23.2344C48.2891 23.2344 47.4805 23.082 46.7461 22.7773C46.0195 22.4648 45.3906 22 44.8594 21.3828C44.3359 20.7656 43.9297 19.9961 43.6406 19.0742C43.3516 18.1523 43.207 17.082 43.207 15.8633V13.0742C43.207 11.8555 43.3477 10.7891 43.6289 9.875C43.918 8.95312 44.3242 8.18359 44.8477 7.56641C45.3789 6.94922 46.0078 6.48438 46.7344 6.17188C47.4688 5.85938 48.2773 5.70312 49.1602 5.70312C50.0586 5.70312 50.875 5.85938 51.6094 6.17188C52.3438 6.48438 52.9727 6.94922 53.4961 7.56641C54.0195 8.18359 54.4219 8.95312 54.7031 9.875C54.9844 10.7891 55.125 11.8555 55.125 13.0742ZM52.2891 15.8633V13.0508C52.2891 12.1836 52.2227 11.4414 52.0898 10.8242C51.957 10.1992 51.7539 9.69141 51.4805 9.30078C51.2148 8.90234 50.8867 8.60938 50.4961 8.42188C50.1133 8.22656 49.668 8.12891 49.1602 8.12891C48.668 8.12891 48.2266 8.22656 47.8359 8.42188C47.4531 8.60938 47.1289 8.90234 46.8633 9.30078C46.5977 9.69141 46.3945 10.1992 46.2539 10.8242C46.1133 11.4414 46.043 12.1836 46.043 13.0508V15.8633C46.043 16.7383 46.1133 17.4883 46.2539 18.1133C46.3945 18.7383 46.5977 19.25 46.8633 19.6484C47.1367 20.0469 47.4648 20.3438 47.8477 20.5391C48.2383 20.7266 48.6797 20.8203 49.1719 20.8203C49.6797 20.8203 50.1289 20.7266 50.5195 20.5391C50.9102 20.3438 51.2344 20.0469 51.4922 19.6484C51.7578 19.25 51.957 18.7383 52.0898 18.1133C52.2227 17.4883 52.2891 16.7383 52.2891 15.8633Z" fill="#1C1AEE"/>
<path d="M63.1298 20.0117V10.3203H65.8603V23H63.2939L63.1298 20.0117ZM63.5166 17.3633L64.3838 17.3398C64.3838 18.1836 64.3056 18.9688 64.1494 19.6953C63.9931 20.4141 63.7509 21.0391 63.4228 21.5703C63.1025 22.0938 62.6845 22.5039 62.1689 22.8008C61.6611 23.0898 61.0478 23.2344 60.3291 23.2344C59.8134 23.2344 59.3408 23.1445 58.9111 22.9648C58.4814 22.7852 58.1103 22.5078 57.7978 22.1328C57.4853 21.7578 57.2431 21.2695 57.0712 20.668C56.8994 20.0664 56.8134 19.3477 56.8134 18.5117V10.3203H59.5439V18.5352C59.5439 18.9883 59.583 19.3672 59.6611 19.6719C59.747 19.9688 59.8564 20.2109 59.9892 20.3984C60.1298 20.5781 60.2861 20.707 60.458 20.7852C60.6377 20.8555 60.8291 20.8906 61.0322 20.8906C61.6494 20.8906 62.1377 20.7383 62.497 20.4336C62.8642 20.1211 63.1259 19.6992 63.2822 19.168C63.4384 18.6367 63.5166 18.0352 63.5166 17.3633Z" fill="#1C1AEE"/>
<path d="M67.2323 17.1758V16.1562C67.2323 15.1719 67.3534 14.3008 67.5956 13.543C67.8378 12.7852 68.1816 12.1523 68.6269 11.6445C69.08 11.1289 69.6112 10.7422 70.2206 10.4844C70.83 10.2188 71.5019 10.0859 72.2362 10.0859C72.9862 10.0859 73.6659 10.2188 74.2753 10.4844C74.8925 10.7422 75.4238 11.1289 75.8691 11.6445C76.3222 12.1523 76.6698 12.7852 76.912 13.543C77.1542 14.3008 77.2753 15.1719 77.2753 16.1562V17.1758C77.2753 18.1602 77.1542 19.0312 76.912 19.7891C76.6698 20.5469 76.3222 21.1836 75.8691 21.6992C75.4238 22.207 74.8964 22.5898 74.287 22.8477C73.6777 23.1055 73.0019 23.2344 72.2597 23.2344C71.5253 23.2344 70.8495 23.1055 70.2323 22.8477C69.623 22.5898 69.0917 22.207 68.6386 21.6992C68.1855 21.1836 67.8378 20.5469 67.5956 19.7891C67.3534 19.0312 67.2323 18.1602 67.2323 17.1758ZM69.9628 16.1562V17.1758C69.9628 17.8086 70.0175 18.3633 70.1269 18.8398C70.2362 19.3086 70.3925 19.6992 70.5956 20.0117C70.7987 20.3242 71.0409 20.5586 71.3222 20.7148C71.6034 20.8711 71.9159 20.9492 72.2597 20.9492C72.6425 20.9492 72.9745 20.8711 73.2558 20.7148C73.5448 20.5586 73.7831 20.3242 73.9706 20.0117C74.1659 19.6992 74.3105 19.3086 74.4042 18.8398C74.498 18.3633 74.5448 17.8086 74.5448 17.1758V16.1562C74.5448 15.5312 74.4902 14.9844 74.3808 14.5156C74.2714 14.0391 74.1152 13.6445 73.912 13.332C73.7089 13.0117 73.4628 12.7734 73.1737 12.6172C72.8925 12.4609 72.58 12.3828 72.2362 12.3828C71.9003 12.3828 71.5917 12.4609 71.3105 12.6172C71.037 12.7734 70.7987 13.0117 70.5956 13.332C70.3925 13.6445 70.2362 14.0391 70.1269 14.5156C70.0175 14.9844 69.9628 15.5312 69.9628 16.1562Z" fill="#1C1AEE"/>
<path d="M83.7919 10.3203V12.4297H77.5692V10.3203H83.7919ZM79.2684 7.21484H81.9872V19.4609C81.9872 19.8516 82.0302 20.1484 82.1161 20.3516C82.202 20.5547 82.3231 20.6914 82.4794 20.7617C82.6356 20.832 82.8192 20.8672 83.0302 20.8672C83.1864 20.8672 83.3387 20.8555 83.4872 20.832C83.6434 20.8008 83.7567 20.7734 83.827 20.75V22.9531C83.6239 23.0312 83.3895 23.0977 83.1239 23.1523C82.8583 23.207 82.538 23.2344 82.163 23.2344C81.6083 23.2344 81.1122 23.1172 80.6747 22.8828C80.2372 22.6484 79.8934 22.2695 79.6434 21.7461C79.3934 21.2227 79.2684 20.5234 79.2684 19.6484V7.21484Z" fill="#1C1AEE"/>
<path d="M89.8045 23.2344C88.9842 23.2344 88.2537 23.1133 87.6131 22.8711C86.9725 22.6211 86.4295 22.2539 85.9842 21.7695C85.5389 21.2773 85.1991 20.6758 84.9647 19.9648C84.7303 19.2461 84.6131 18.4141 84.6131 17.4688V16.25C84.6131 15.1797 84.7342 14.2578 84.9764 13.4844C85.2264 12.7031 85.5702 12.0625 86.0077 11.5625C86.4452 11.0625 86.9608 10.6914 87.5545 10.4492C88.1561 10.207 88.8084 10.0859 89.5116 10.0859C90.3084 10.0859 90.9998 10.2148 91.5858 10.4727C92.1717 10.7305 92.6522 11.1172 93.0272 11.6328C93.41 12.1484 93.6912 12.7852 93.8709 13.543C94.0584 14.3008 94.1522 15.1719 94.1522 16.1562V17.5273H85.9256V15.4648H91.4569V15.1719C91.4412 14.5938 91.3709 14.0977 91.2459 13.6836C91.1209 13.2617 90.9178 12.9414 90.6366 12.7227C90.3631 12.4961 89.9842 12.3828 89.4998 12.3828C89.1483 12.3828 88.8358 12.4492 88.5623 12.582C88.2889 12.7148 88.0623 12.9297 87.8827 13.2266C87.7108 13.5234 87.578 13.9219 87.4842 14.4219C87.3905 14.9141 87.3436 15.5234 87.3436 16.25V17.4688C87.3436 18.1016 87.3983 18.6367 87.5077 19.0742C87.6248 19.5117 87.7967 19.8711 88.0233 20.1523C88.2498 20.4258 88.5233 20.6289 88.8436 20.7617C89.1717 20.8867 89.5506 20.9492 89.9803 20.9492C90.6131 20.9492 91.1561 20.832 91.6092 20.5977C92.0702 20.3555 92.4686 20.043 92.8045 19.6602L94.0116 21.3359C93.785 21.6406 93.4803 21.9414 93.0975 22.2383C92.7147 22.5273 92.2498 22.7656 91.703 22.9531C91.1639 23.1406 90.5311 23.2344 89.8045 23.2344Z" fill="#1C1AEE"/>
<path d="M101.255 19.6602C101.255 19.3945 101.177 19.1602 101.02 18.957C100.872 18.7461 100.63 18.5391 100.294 18.3359C99.9578 18.1328 99.5086 17.9141 98.9461 17.6797C98.3602 17.4375 97.8406 17.1953 97.3875 16.9531C96.9344 16.7109 96.5516 16.4453 96.2391 16.1562C95.9266 15.8594 95.6883 15.5195 95.5242 15.1367C95.3602 14.7539 95.2781 14.3086 95.2781 13.8008C95.2781 13.2773 95.3758 12.793 95.5711 12.3477C95.7664 11.9023 96.0477 11.5117 96.4148 11.1758C96.782 10.832 97.2234 10.5664 97.7391 10.3789C98.2547 10.1836 98.8367 10.0859 99.4852 10.0859C100.399 10.0859 101.18 10.2539 101.829 10.5898C102.485 10.918 102.985 11.3789 103.329 11.9727C103.68 12.5586 103.856 13.2344 103.856 14H101.126C101.126 13.6797 101.067 13.3906 100.95 13.1328C100.833 12.8672 100.653 12.6562 100.411 12.5C100.169 12.3359 99.8602 12.2539 99.4852 12.2539C99.1414 12.2539 98.8523 12.3203 98.618 12.4531C98.3914 12.5781 98.2195 12.75 98.1023 12.9688C97.993 13.1797 97.9383 13.418 97.9383 13.6836C97.9383 13.8789 97.9734 14.0508 98.0438 14.1992C98.1141 14.3477 98.2313 14.4922 98.3953 14.6328C98.5594 14.7656 98.7781 14.9023 99.0516 15.043C99.3328 15.1836 99.6883 15.3438 100.118 15.5234C100.97 15.8516 101.677 16.1914 102.239 16.543C102.802 16.8945 103.223 17.3047 103.505 17.7734C103.786 18.2422 103.927 18.8242 103.927 19.5195C103.927 20.082 103.821 20.5898 103.61 21.043C103.407 21.4961 103.11 21.8867 102.72 22.2148C102.337 22.543 101.872 22.7969 101.325 22.9766C100.786 23.1484 100.184 23.2344 99.5203 23.2344C98.5281 23.2344 97.6883 23.0391 97.0008 22.6484C96.3211 22.25 95.8055 21.7383 95.4539 21.1133C95.1023 20.4883 94.9266 19.8281 94.9266 19.1328H97.5633C97.5867 19.6328 97.6922 20.0234 97.8797 20.3047C98.075 20.5859 98.3211 20.7812 98.618 20.8906C98.9148 20.9922 99.2234 21.043 99.5438 21.043C99.9266 21.043 100.243 20.9922 100.493 20.8906C100.743 20.7812 100.93 20.6211 101.055 20.4102C101.188 20.1992 101.255 19.9492 101.255 19.6602Z" fill="#1C1AEE"/>
<path d="M111.112 5.9375H113.702L117.628 18.6289L121.542 5.9375H123.944L118.694 23H116.55L111.112 5.9375ZM110.139 5.9375H112.53L112.917 16.8008V23H110.139V5.9375ZM122.702 5.9375H125.104V23H122.327V16.8008L122.702 5.9375Z" fill="#1C1AEE"/>
<path d="M133.004 20.4219V14.1055C133.004 13.668 132.941 13.3164 132.816 13.0508C132.699 12.7852 132.523 12.5938 132.289 12.4766C132.062 12.3516 131.777 12.2891 131.433 12.2891C131.074 12.2891 130.769 12.3633 130.519 12.5117C130.277 12.6602 130.093 12.8633 129.968 13.1211C129.843 13.3711 129.781 13.6602 129.781 13.9883H127.05C127.05 13.4805 127.152 12.9922 127.355 12.5234C127.566 12.0547 127.867 11.6367 128.257 11.2695C128.648 10.9023 129.121 10.6133 129.675 10.4023C130.23 10.1914 130.847 10.0859 131.527 10.0859C132.34 10.0859 133.062 10.2227 133.695 10.4961C134.328 10.7617 134.824 11.1953 135.183 11.7969C135.55 12.3906 135.734 13.1719 135.734 14.1406V20.0586C135.734 20.6445 135.769 21.168 135.84 21.6289C135.918 22.082 136.023 22.4766 136.156 22.8125V23H133.379C133.254 22.6953 133.16 22.3047 133.097 21.8281C133.035 21.3516 133.004 20.8828 133.004 20.4219ZM133.367 15.2773L133.379 17.0469H132.066C131.675 17.0469 131.324 17.1016 131.011 17.2109C130.699 17.3125 130.433 17.4609 130.215 17.6562C130.004 17.8438 129.84 18.0742 129.722 18.3477C129.613 18.6211 129.558 18.9219 129.558 19.25C129.558 19.6484 129.613 19.9727 129.722 20.2227C129.84 20.4727 130.007 20.6602 130.226 20.7852C130.453 20.9023 130.726 20.9609 131.047 20.9609C131.484 20.9609 131.863 20.8672 132.183 20.6797C132.511 20.4844 132.761 20.25 132.933 19.9766C133.113 19.7031 133.183 19.4531 133.144 19.2266L133.765 20.3633C133.703 20.6602 133.586 20.9727 133.414 21.3008C133.25 21.6289 133.035 21.9414 132.769 22.2383C132.504 22.5352 132.183 22.7773 131.808 22.9648C131.433 23.1445 131 23.2344 130.507 23.2344C129.797 23.2344 129.164 23.0859 128.609 22.7891C128.054 22.4922 127.617 22.0664 127.297 21.5117C126.984 20.9492 126.828 20.2773 126.828 19.4961C126.828 18.8633 126.933 18.2891 127.144 17.7734C127.355 17.2578 127.668 16.8164 128.082 16.4492C128.496 16.0742 129.015 15.7852 129.64 15.582C130.273 15.3789 131.011 15.2773 131.855 15.2773H133.367Z" fill="#1C1AEE"/>
<path d="M140.305 12.7695V23H137.575V10.3203H140.176L140.305 12.7695ZM143.364 10.2383L143.352 12.9336C143.196 12.8945 143.028 12.8711 142.848 12.8633C142.676 12.8477 142.505 12.8398 142.333 12.8398C141.958 12.8398 141.633 12.9062 141.36 13.0391C141.087 13.1719 140.856 13.3633 140.669 13.6133C140.481 13.8633 140.333 14.1641 140.223 14.5156C140.122 14.8672 140.059 15.2656 140.036 15.7109L139.45 15.7344C139.45 14.9375 139.512 14.1992 139.637 13.5195C139.762 12.832 139.95 12.2344 140.2 11.7266C140.458 11.2109 140.778 10.8086 141.161 10.5195C141.544 10.2305 141.989 10.0859 142.497 10.0859C142.637 10.0859 142.798 10.1016 142.977 10.1328C143.157 10.1641 143.286 10.1992 143.364 10.2383Z" fill="#1C1AEE"/>
<path d="M147.021 5V23H144.291V5H147.021ZM153.584 10.3203L149.084 16.4492L146.353 19.5547L145.662 17.1406L147.666 14.293L150.314 10.3203H153.584ZM150.853 23L147.724 17.0703L149.435 15.0664L153.994 23H150.853Z" fill="#1C1AEE"/>
<path d="M15.9685 7.98423V18.9625V29.4003C15.9685 30.0322 15.1166 30.2333 14.834 29.6681L13.7604 27.5208C13.2073 26.4146 11.7839 26.0952 10.6162 26.5028C9.7921 26.7904 8.90642 26.9468 7.98423 26.9468C3.57466 26.9468 0 23.3721 0 18.9625V7.98423C0 3.57466 3.57466 0 7.98423 0C12.3938 0 15.9685 3.57466 15.9685 7.98423Z" fill="#1C1AEE"/>
<path d="M26.4329 1.87501C26.115 1.95448 25.7825 1.95448 25.4646 1.87501L20.4447 0.620029C19.1849 0.305078 17.9645 1.25791 17.9645 2.55649V23.9527C17.9645 25.0551 18.8582 25.9487 19.9606 25.9487H29.7053C30.4613 25.9487 31.1525 26.3759 31.4906 27.0521L32.7986 29.6681C33.0812 30.2332 33.933 30.0322 33.933 29.4003V2.55649C33.933 1.25791 32.7126 0.305078 31.4528 0.620029L26.4329 1.87501Z" fill="#1C1AEE"/>
</svg>
